<svg width="60" height="60" viewBox="0 0 60 60" fill="none" xmlns="http://www.w3.org/2000/svg">
<path fill-rule="evenodd" clip-rule="evenodd" d="M20.0407 31.1648C20.18 31.3045 20.3455 31.4153 20.5278 31.4909C20.71 31.5665 20.9054 31.6055 21.1027 31.6055C21.3 31.6055 21.4953 31.5665 21.6776 31.4909C21.8598 31.4153 22.0253 31.3045 22.1647 31.1648L30.1027 23.2238L38.0407 31.1648C38.3223 31.4464 38.7043 31.6047 39.1027 31.6047C39.501 31.6047 39.883 31.4464 40.1647 31.1648C40.4463 30.8831 40.6045 30.5011 40.6045 30.1028C40.6045 29.7045 40.4463 29.3224 40.1647 29.0408L31.1647 20.0408C31.0253 19.9011 30.8598 19.7903 30.6776 19.7146C30.4953 19.639 30.3 19.6001 30.1027 19.6001C29.9054 19.6001 29.71 19.639 29.5278 19.7146C29.3455 19.7903 29.18 19.9011 29.0407 20.0408L20.0407 29.0408C19.901 29.1801 19.7901 29.3457 19.7145 29.5279C19.6389 29.7101 19.6 29.9055 19.6 30.1028C19.6 30.3001 19.6389 30.4955 19.7145 30.6777C19.7901 30.8599 19.901 31.0255 20.0407 31.1648V31.1648Z" fill="#070707"/>
<path fill-rule="evenodd" clip-rule="evenodd" d="M30.1025 40.6025C30.5004 40.6025 30.8819 40.4445 31.1632 40.1632C31.4445 39.8819 31.6025 39.5004 31.6025 39.1025V24.1025C31.6025 23.7047 31.4445 23.3232 31.1632 23.0419C30.8819 22.7606 30.5004 22.6025 30.1025 22.6025C29.7047 22.6025 29.3232 22.7606 29.0419 23.0419C28.7606 23.3232 28.6025 23.7047 28.6025 24.1025V39.1025C28.6025 39.5004 28.7606 39.8819 29.0419 40.1632C29.3232 40.4445 29.7047 40.6025 30.1025 40.6025V40.6025Z" fill="#070707"/>
</svg>
