<svg width="22" height="20" viewBox="0 0 22 20" fill="none" xmlns="http://www.w3.org/2000/svg">
<path d="M10.2164 0.859824C10.5162 -0.0604526 11.8181 -0.0604518 12.118 0.859825L13.8691 6.23422C14.0032 6.64585 14.387 6.92443 14.8199 6.92443H20.4806C21.45 6.92443 21.8524 8.16546 21.0674 8.73422L16.4925 12.0489C16.141 12.3035 15.994 12.7558 16.1284 13.1684L17.877 18.5351C18.177 19.4559 17.1237 20.2229 16.3395 19.6547L11.7539 16.3323C11.4039 16.0787 10.9305 16.0787 10.5805 16.3323L5.99492 19.6547C5.21067 20.2229 4.15738 19.4559 4.4574 18.5351L6.20597 13.1684C6.34043 12.7558 6.19335 12.3035 5.84189 12.0489L1.26701 8.73422C0.482006 8.16546 0.884337 6.92443 1.85373 6.92443H7.51449C7.94741 6.92443 8.33117 6.64585 8.46529 6.23422L10.2164 0.859824Z" fill="#070707"/>
</svg>
